<?xml version="1.0" encoding="UTF-8" standalone="no"?>
<svg width="1024" height="1024" viewBox="0 0 1024 1024" fill="none" xmlns="http://www.w3.org/2000/svg">
  <!-- Background -->
  <rect width="1024" height="1024" rx="230" fill="#3B82F6"/>
  
  <!-- Wrench Icon -->
  <path d="M768 384C768 341.49 757.85 300.96 739.16 265.35C720.47 229.73 694.07 200 662.06 179.2C630.05 158.4 593.48 147.39 556.39 147.48C519.31 147.57 482.81 158.74 450.91 179.69L536.32 265.1C545.53 274.31 553.09 285.06 558.64 296.87C564.18 308.68 567.65 321.37 568.82 334.4C569.99 347.43 568.84 360.56 565.44 373.15C562.04 385.73 556.46 397.53 548.95 408C541.43 418.47 532.13 427.42 521.37 434.46C510.61 441.49 498.61 446.51 485.93 449.25C473.25 451.99 460.13 452.46 447.22 450.63C434.31 448.8 421.85 444.7 410.37 438.58L324.96 524.19C363.75 569.14 417.86 597.37 476.81 603.74C535.76 610.1 595.14 594.09 642.14 558.71C689.14 523.34 720.3 471.3 729.2 414.28C738.1 357.26 724.09 299.19 690.19 252.23L845.32 97.1C934.47 205.85 970.82 346.6 944.08 481.94C917.34 617.29 830.05 734.47 709.76 800.67C589.46 866.87 445.79 874.8 318.11 822.02C190.43 769.23 88.43 660.59 38.06 526.56L177.28 387.34C194.88 420.15 221.55 447.34 254.03 465.58C286.51 483.83 323.6 492.19 361.06 489.4C398.51 486.61 434.01 472.76 462.69 449.95C491.37 427.14 511.77 396.44 521.28 361.6L768 384Z" fill="white"/>
  
  <!-- NL Letters -->
  <path d="M362 623H402V763H442V623H482V583H362V623Z" fill="white"/>
  <path d="M542 583V763H582V643L642 763H682V583H642V703L582 583H542Z" fill="white"/>
</svg>