<?xml version="1.0" encoding="UTF-8" standalone="no"?>
<svg width="1242" height="2688" viewBox="0 0 1242 2688" fill="none" xmlns="http://www.w3.org/2000/svg">
  <!-- Background -->
  <rect width="1242" height="2688" fill="#FFFFFF"/>
  
  <!-- Logo Container -->
  <g transform="translate(321, 1194)">
    <!-- Background Circle -->
    <circle cx="300" cy="300" r="300" fill="#3B82F6"/>
    
    <!-- Wrench Icon -->
    <path d="M450 225C450 200.87 444.6 177.65 434.39 157.02C424.18 136.39 409.35 119.06 391.07 106.67C372.79 94.29 351.84 87.29 330.12 86.34C308.39 85.39 286.89 90.51 267.61 101.24L316.69 157.74C321.96 162.47 326.34 168.1 329.61 174.39C332.88 180.68 334.97 187.55 335.77 194.62C336.58 201.69 336.07 208.86 334.28 215.76C332.49 222.65 329.45 229.14 325.32 234.86C321.19 240.58 316.05 245.42 310.16 249.12C304.28 252.82 297.75 255.33 290.88 256.54C284.02 257.75 277.01 257.62 270.2 256.17C263.38 254.72 256.89 251.97 251.05 248.04L201.98 304.71C224.5 336.53 256.52 358.38 293.28 366.38C330.04 374.38 368.58 367.89 399.99 348.36C431.4 328.84 453.18 297.59 460.6 261.87C468.01 226.15 460.42 189.03 439.59 158.95L533.82 64.72C585.57 134.7 607.75 221.93 594.76 307.27C581.77 392.61 535.3 468.84 467.7 518.44C400.09 568.05 316.87 586.16 236.93 567.53C157 548.89 88.09 494.96 45.97 421.62L118.87 254.72C129.68 273.11 145.19 287.87 163.9 297.28C182.61 306.69 203.7 310.45 224.59 307.92C245.49 305.39 265.25 296.69 281.43 282.78C297.6 268.86 309.44 250.37 315.61 229.58L450 225Z" fill="white"/>
    
    <!-- NL Letters -->
    <path d="M220 393H243V480H267V393H290V370H220V393Z" fill="white"/>
    <path d="M330 370V480H353V405L390 480H413V370H390V445L353 370H330Z" fill="white"/>
  </g>
  
  <!-- Text "NextLevel Technician" -->
  <text x="621" y="1884" font-family="Arial, sans-serif" font-size="72" font-weight="bold" text-anchor="middle" fill="#333333">NextLevel Technician</text>
</svg>